<?xml version="1.0" encoding="UTF-8" standalone="no"?>
<!-- Created with Inkscape (http://www.inkscape.org/) -->

<svg
   width="32.073994mm"
   height="28.120197mm"
   viewBox="0 0 32.073994 28.120197"
   version="1.1"
   id="svg1"
   xmlns:inkscape="http://www.inkscape.org/namespaces/inkscape"
   xmlns:sodipodi="http://sodipodi.sourceforge.net/DTD/sodipodi-0.dtd"
   xmlns="http://www.w3.org/2000/svg"
   xmlns:svg="http://www.w3.org/2000/svg">
  <sodipodi:namedview
     id="namedview1"
     pagecolor="#ffffff"
     bordercolor="#000000"
     borderopacity="0.25"
     inkscape:showpageshadow="2"
     inkscape:pageopacity="0.0"
     inkscape:pagecheckerboard="0"
     inkscape:deskcolor="#d1d1d1"
     inkscape:document-units="mm" />
  <defs
     id="defs1" />
  <g
     inkscape:label="Layer 1"
     inkscape:groupmode="layer"
     id="layer1"
     transform="matrix(0.35895999,0,0,0.35895999,-10.972733,-12.191822)">
    <path
       d="m 57.5045,33.964335 c -1.284914,0.0022 -2.568032,0.09611 -3.839559,0.28112 -1.271362,0.185054 -2.527885,0.460674 -3.759977,0.824756 -1.232306,0.364205 -2.437021,0.815973 -3.604948,1.351855 -1.16779,0.535695 -2.295828,1.154112 -3.375504,1.850533 -1.079685,0.696409 -2.108251,1.469042 -3.077849,2.312004 -0.969663,0.84312 -1.877861,1.754427 -2.717663,2.726965 -0.839705,0.972424 -1.608885,2.003581 -2.301668,3.0856 -0.69296,1.081996 -1.307752,2.212107 -1.839681,3.381706 -0.531666,1.169616 -0.979117,2.375712 -1.338937,3.609082 -0.360036,1.233418 -0.631511,2.490977 -0.812353,3.763078 -0.180708,1.272007 -0.270337,2.555297 -0.268201,3.840075 0.002,1.284902 0.09577,2.56802 0.280603,3.839559 0.184885,1.27135 0.460332,2.527872 0.824239,3.759977 0.364037,1.232292 0.815632,2.437007 1.351339,3.604948 l 6.477124,-2.970361 c -0.424818,-0.94856 -0.774703,-1.928931 -1.046448,-2.932121 -0.29281,-1.121248 -0.487162,-2.265922 -0.580843,-3.42098 -0.09378,-1.155118 -0.08652,-2.316218 0.0217,-3.470072 0.108321,-1.153916 0.317198,-2.29617 0.624251,-3.413745 0.306948,-1.117409 0.710869,-2.205886 1.207162,-3.253032 0.496375,-1.047188 1.083236,-2.049037 1.753898,-2.994132 0.67074,-0.945163 1.422732,-1.829951 2.247408,-2.644283 0.824598,-0.814308 1.718722,-1.55506 2.672188,-2.213818 0.953396,-0.65892 1.962508,-1.233332 3.015837,-1.716692 1.053318,-0.48315 2.146809,-0.873411 3.268017,-1.166337 1.121233,-0.292984 2.265906,-0.48751 3.42098,-0.58136 1.155118,-0.09378 2.316218,-0.08652 3.470073,0.0217 1.153901,0.108152 2.296154,0.316856 3.413745,0.623734 1.117585,0.30692 2.206236,0.710841 3.253548,1.207162 1.04717,0.49621 2.049018,1.082898 2.994133,1.753381 0.945321,0.670552 1.830282,1.422371 2.644799,2.246891 0.814285,0.824434 1.555037,1.718385 2.213819,2.671672 0.658919,0.953396 1.233331,1.962507 1.716691,3.015836 0.161028,0.350902 0.311815,0.706414 0.452169,1.066085 0.14026,0.359779 0.270022,0.723563 0.389123,1.09089 0.119268,0.367113 0.227835,0.737618 0.325562,1.111043 0.09757,0.373604 0.184251,0.749968 0.259932,1.128613 0.07582,0.378547 0.140617,0.759219 0.194303,1.141533 0.05371,0.382464 0.09627,0.766411 0.127641,1.151351 0.03118,0.384671 0.05117,0.770168 0.05994,1.156001 0.0088,0.386011 0.0064,0.772197 -0.0072,1.158069 -0.01343,0.385797 -0.03807,0.771121 -0.0739,1.155485 -0.03603,0.384559 -0.08325,0.767989 -0.141594,1.149801 -0.05836,0.381588 -0.12781,0.761398 -0.208256,1.138948 -0.08037,0.377575 -0.171702,0.752732 -0.273885,1.124996 -0.102236,0.372351 -0.215283,0.74165 -0.338997,1.107426 -0.123631,0.365734 -0.257874,0.727794 -0.402559,1.085722 -0.144715,0.357901 -0.29981,0.711517 -0.465088,1.0604 -0.165309,0.349023 -0.340739,0.693161 -0.526066,1.031979 -0.18526,0.338742 -0.380336,0.672024 -0.584978,0.999422 -0.204729,0.327242 -0.418932,0.648461 -0.642338,0.963249 -0.223351,0.315032 -0.455821,0.623498 -0.697115,0.925008 -0.241337,0.301246 -0.491385,0.595409 -0.749825,0.882117 -0.2583,0.286917 -0.524891,0.56626 -0.799434,0.837675 -0.27478,0.271369 -0.557397,0.534686 -0.847494,0.789615 -0.289912,0.254915 -0.587177,0.501343 -0.891418,0.738973 -0.304207,0.237576 -0.615258,0.466255 -0.93276,0.685747 -0.317657,0.219528 -0.641633,0.429767 -0.971517,0.630452 -0.329753,0.200745 -0.665275,0.391857 -1.00614,0.573092 -0.341011,0.18108 -0.687217,0.352201 -1.038179,0.513147 -1.053284,0.483503 -2.146777,0.87411 -3.268018,1.16737 -1.121217,0.293159 -2.265891,0.487857 -3.42098,0.581877 -1.155088,0.09412 -2.316188,0.08721 -3.470072,-0.02067 -1.153885,-0.107983 -2.296138,-0.316514 -3.413745,-0.623217 -1.117552,-0.306586 -2.206202,-0.710161 -3.253548,-1.206128 -1.047348,-0.496184 -2.04937,-1.082872 -2.99465,-1.753382 -0.9453,-0.670388 -1.830261,-1.422033 -2.6448,-2.246374 -0.814619,-0.824226 -1.555716,-1.718005 -2.214851,-2.671155 -0.659098,-0.953377 -1.233683,-1.962489 -1.717208,-3.015837 l 18.093469,-8.306469 -18.09657,8.299752 c -0.04006,-0.109381 -0.07917,-0.219112 -0.117305,-0.329179 l -6.475574,2.972428 c 0.536195,1.167835 1.155131,2.295874 1.852083,3.375505 0.696781,1.079362 1.46976,2.107582 2.313037,3.076814 0.843304,0.969503 1.754784,1.877529 2.727482,2.717147 0.972624,0.83937 2.003953,1.608204 3.086117,2.300635 1.082194,0.692628 2.212477,1.307073 3.382223,1.838647 1.169812,0.531337 2.37608,0.978442 3.609598,1.337903 1.233444,0.359687 2.491002,0.630816 3.763078,0.81132 1.272203,0.180387 2.555667,0.26967 3.840593,0.267167 1.284766,-0.0025 2.567711,-0.09683 3.839042,-0.282153 1.271375,-0.185224 2.527898,-0.461017 3.759977,-0.825273 1.23213,-0.364228 2.436672,-0.815996 3.604431,-1.351855 0.401231,-0.184198 0.797881,-0.378215 1.189592,-0.581877 0.391889,-0.203724 0.778718,-0.41704 1.160135,-0.639754 0.381148,-0.222606 0.756777,-0.454531 1.126547,-0.695565 0.369881,-0.240976 0.733793,-0.490993 1.091406,-0.749825 0.357741,-0.25885 0.709074,-0.526442 1.053682,-0.802535 0.34438,-0.27624 0.681929,-0.56089 1.012342,-0.853694 0.330651,-0.292603 0.654071,-0.593279 0.969966,-0.901754 0.315708,-0.308653 0.623792,-0.625008 0.923975,-0.948779 0.300221,-0.323682 0.592453,-0.654683 0.876432,-0.992705 0.28403,-0.338037 0.559721,-0.682995 0.826823,-1.034562 0.266955,-0.351555 0.525243,-0.709608 0.77463,-1.073836 0.249517,-0.364218 0.490057,-0.734505 0.721403,-1.110527 0.231368,-0.376037 0.453471,-0.757696 0.666109,-1.144633 0.212682,-0.387007 0.415832,-0.779177 0.609265,-1.176155 0.193279,-0.396963 0.376785,-0.79861 0.550354,-1.204578 0.173679,-0.405888 0.33737,-0.815978 0.490926,-1.229899 0.153543,-0.413965 0.296902,-0.831637 0.429948,-1.252637 0.133028,-0.420846 0.25571,-0.844893 0.367936,-1.271757 0.11216,-0.427044 0.213821,-0.856777 0.304891,-1.28881 0.09109,-0.432042 0.171553,-0.866255 0.241329,-1.302246 0.06999,-0.436006 0.129261,-0.873665 0.177767,-1.312581 0.04834,-0.438779 0.0859,-0.878678 0.112655,-1.3193 0.02667,-0.440689 0.04252,-0.881966 0.04754,-1.323433 0.0051,-0.44139 -5.38e-4,-0.882839 -0.01705,-1.32395 -0.01657,-0.441234 -0.04397,-0.881994 -0.08217,-1.321883 -0.03815,-0.439868 -0.08708,-0.878733 -0.146761,-1.316199 -0.05975,-0.437468 -0.130218,-0.873404 -0.211356,-1.307414 -0.0812,-0.434031 -0.173037,-0.866004 -0.275436,-1.295528 -0.102169,-0.429375 -0.214857,-0.856178 -0.337963,-1.280025 -0.123319,-0.424037 -0.257029,-0.844982 -0.40101,-1.262456 -0.143995,-0.417305 -0.29821,-0.831013 -0.462504,-1.240751 -0.164166,-0.409873 -0.338368,-0.815656 -0.522448,-1.21698 -0.535862,-1.167805 -1.154452,-2.295843 -1.85105,-3.375504 -0.696595,-1.079523 -1.469402,-2.107917 -2.312521,-3.077332 -0.84312,-0.969663 -1.754427,-1.877861 -2.726965,-2.717663 -0.972441,-0.839528 -2.003597,-1.608535 -3.0856,-2.301152 -1.082178,-0.692805 -2.212462,-1.307424 -3.382222,-1.839164 -1.169617,-0.531666 -2.375712,-0.979116 -3.609082,-1.338936 -1.233431,-0.359861 -2.49099,-0.631164 -3.763078,-0.811837 -1.272008,-0.180708 -2.555298,-0.270337 -3.840076,-0.268201 z"
       style="fill:#e0e0e0;stroke-width:0.264583"
       id="path3"
       sodipodi:nodetypes="scccccsccccccccccccccccccccccccccsccccscccccccccccccccccccccccccccccccccccscccccccccccccccccccccsscccccscccccccccccccccccsccss"
       inkscape:export-filename="search.svg"
       inkscape:export-xdpi="96"
       inkscape:export-ydpi="96" />
    <rect
       style="fill:#e0e0e0;fill-opacity:1;stroke-width:0.248723"
       id="rect3"
       width="48.620262"
       height="18.402945"
       x="106.07828"
       y="3.8648744"
       transform="matrix(0.79054601,0.61240265,-0.61467212,0.78878273,0,0)" />
  </g>
</svg>
