<?xml version="1.0" encoding="UTF-8" standalone="no"?>
<!-- Created with Inkscape (http://www.inkscape.org/) -->

<svg
   width="116.62366mm"
   height="100.2956mm"
   viewBox="0 0 116.62366 100.2956"
   version="1.1"
   id="svg1"
   xmlns:inkscape="http://www.inkscape.org/namespaces/inkscape"
   xmlns:sodipodi="http://sodipodi.sourceforge.net/DTD/sodipodi-0.dtd"
   xmlns="http://www.w3.org/2000/svg"
   xmlns:svg="http://www.w3.org/2000/svg">
  <sodipodi:namedview
     id="namedview1"
     pagecolor="#ffffff"
     bordercolor="#000000"
     borderopacity="0.25"
     inkscape:showpageshadow="2"
     inkscape:pageopacity="0.0"
     inkscape:pagecheckerboard="0"
     inkscape:deskcolor="#d1d1d1"
     inkscape:document-units="mm" />
  <defs
     id="defs1" />
  <g
     inkscape:groupmode="layer"
     id="layer2"
     inkscape:label="Layer 2"
     transform="translate(-55.541684,-67.622763)">
    <rect
       style="fill:#e0e0e0;fill-opacity:1;stroke-width:0.264583"
       id="rect4"
       width="87.04792"
       height="47.625004"
       x="128.05557"
       y="-72.53434"
       transform="rotate(58.417728)"
       ry="6.0854163"
       inkscape:export-filename="tag.svg"
       inkscape:export-xdpi="96"
       inkscape:export-ydpi="96" />
    <path
       style="fill:#e0e0e0;fill-opacity:1;stroke-width:0.264583"
       id="path4"
       sodipodi:type="arc"
       sodipodi:cx="85.526558"
       sodipodi:cy="147.70364"
       sodipodi:rx="7.3421874"
       sodipodi:ry="7.3421874"
       sodipodi:start="2.7115929"
       sodipodi:end="2.7114233"
       sodipodi:arc-type="slice"
       d="m 78.85276,150.76439 a 7.3421874,7.3421874 0 0 1 3.612773,-9.73441 7.3421874,7.3421874 0 0 1 9.734563,3.61236 7.3421874,7.3421874 0 0 1 -3.611947,9.73471 7.3421874,7.3421874 0 0 1 -9.73487,-3.61153 l 6.673279,-3.06188 z" />
    <path
       style="fill:#e0e0e0;fill-opacity:1;stroke-width:0.264583"
       d="m 82.506102,144.24536 c -0.0892,-6.07289 -0.563577,-11.13888 -2.057977,-16.4638 -1.478257,-5.2674 -2.946386,-11.02049 -6.735191,-14.96709 C 70.043168,108.99186 62.631858,109.9753 59.494197,105.7051 55.791043,100.66529 54.45333,93.092714 56.500778,87.183319 58.9138,80.218796 66.233677,75.608236 72.777492,72.216226 c 6.287713,-3.259259 13.707267,-5.056279 20.766841,-4.49013 6.141282,0.492506 12.627097,2.619966 17.212157,6.735194 2.40801,2.161258 5.4401,5.513006 4.49013,8.606078 -0.54067,1.760398 -3.06993,3.033384 -4.86431,2.61924 -2.39465,-0.552686 -2.42366,-4.403251 -4.30304,-5.986836 -3.92453,-3.306847 -8.747328,-6.139015 -13.844558,-6.735193 -5.394885,-0.630992 -11.032237,1.14987 -15.902535,3.554685 -5.398301,2.665528 -11.55129,6.032847 -13.844564,11.599497 -1.812992,4.400823 -1.386989,10.29669 1.309622,14.218739 2.796826,4.06781 9.814875,3.03536 13.283295,6.5481 4.272493,4.32709 6.00689,10.67138 7.857725,16.46381 0.770784,2.41227 1.070191,4.96246 1.309619,7.48354 0.365607,3.84968 0.516743,6.99023 0.187089,11.5995 -0.09353,1.30777 -2.966875,0.70374 -3.928861,-0.18709 z"
       id="path5"
       sodipodi:nodetypes="cssssssssssssssssssc" />
  </g>
</svg>
